<?xml version="1.0" encoding="UTF-8" standalone="no"?>
<svg
   version="1.1"
   viewBox="0 0 22 22"
   id="svg2"
   sodipodi:docname="vorta.svg"
   inkscape:version="1.3.2 (091e20ef0f, 2023-11-25)"
   xmlns:inkscape="http://www.inkscape.org/namespaces/inkscape"
   xmlns:sodipodi="http://sodipodi.sourceforge.net/DTD/sodipodi-0.dtd"
   xmlns="http://www.w3.org/2000/svg"
   xmlns:svg="http://www.w3.org/2000/svg">
  <sodipodi:namedview
     id="namedview2"
     pagecolor="#505050"
     bordercolor="#eeeeee"
     borderopacity="1"
     inkscape:showpageshadow="0"
     inkscape:pageopacity="0"
     inkscape:pagecheckerboard="0"
     inkscape:deskcolor="#505050"
     inkscape:zoom="21.772727"
     inkscape:cx="10.931107"
     inkscape:cy="11"
     inkscape:window-width="956"
     inkscape:window-height="1052"
     inkscape:window-x="960"
     inkscape:window-y="24"
     inkscape:window-maximized="1"
     inkscape:current-layer="svg2" />
  <defs
     id="defs1">
    <style
       id="current-color-scheme"
       type="text/css">.ColorScheme-Text {
        color:#dedede;
      }</style>
  </defs>
  <g
     id="vorta"
     inkscape:label="vorta">
    <path
       d="m0 0h22v22h-22z"
       opacity="0"
       id="path2"
       style="opacity:0" />
    <path
       d="m6 2c-1.108 0-2 0.892-2 2v14c0 1.108 0.892 2 2 2h10c1.108 0 2-0.892 2-2v-14c0-1.108-0.892-2-2-2h-10zm0 2h1v2h-1v-2zm2 0h1v2h-1v-2zm2 0h1v2h-1v-2zm2 0h1v2h-1v-2zm2 1h1v1h-1v-1zm-3 2a5 5 0 0 1 5 5 5 5 0 0 1-5 5 5 5 0 0 1-5-5 5 5 0 0 1 5-5zm-0.5 1c-0.277 0-0.5 0.223-0.5 0.5v4c0 0.277 0.223 0.5 0.5 0.5h3c0.277 0 0.5-0.223 0.5-0.5s-0.223-0.5-0.5-0.5h-2.5v-3.5c0-0.277-0.223-0.5-0.5-0.5zm5.5 9a1 1 0 0 1 1 1 1 1 0 0 1-1 1 1 1 0 0 1-1-1 1 1 0 0 1 1-1z"
       fill="#dedede"
       id="path1" />
  </g>
</svg>
