<?xml version="1.0" encoding="utf-8"?>
<!-- Generator: Adobe Illustrator 25.0.1, SVG Export Plug-In . SVG Version: 6.00 Build 0)  -->
<svg xmlns:cc="http://creativecommons.org/ns#" xmlns:dc="http://purl.org/dc/elements/1.1/" xmlns:inkscape="http://www.inkscape.org/namespaces/inkscape" xmlns:rdf="http://www.w3.org/1999/02/22-rdf-syntax-ns#" xmlns:sodipodi="http://sodipodi.sourceforge.net/DTD/sodipodi-0.dtd" xmlns:svg="http://www.w3.org/2000/svg" xmlns="http://www.w3.org/2000/svg" xmlns:xlink="http://www.w3.org/1999/xlink" version="1.1" id="svg896" x="0px" y="0px" viewBox="0 0 192.2 164.4" style="enable-background:new 0 0 192.2 164.4;" xml:space="preserve">
<style type="text/css">
	.st0{fill:url(#SVGID_1_);}
</style>

<linearGradient id="SVGID_1_" gradientUnits="userSpaceOnUse" x1="4.3307" y1="83.1902" x2="184.3217" y2="83.1902" gradientTransform="matrix(1 0 0 -1 0 163.8898)">
	<stop offset="0" style="stop-color:#FF7F7F"/>
	<stop offset="0.1015" style="stop-color:#E7738B"/>
	<stop offset="0.4274" style="stop-color:#9C4EB0"/>
	<stop offset="0.5782" style="stop-color:#7F3FBF"/>
	<stop offset="0.6801" style="stop-color:#7F49C9"/>
	<stop offset="0.8516" style="stop-color:#7F63E3"/>
	<stop offset="1" style="stop-color:#7F7FFF"/>
</linearGradient>
<path class="st0" d="M67,155.3c-14.7,0-25.7-0.4-30.5-0.5c-1,0-1.7-0.1-2-0.1c-0.1,0-0.2,0-0.2,0l-16-0.7c-2-0.1-3.8-1.2-4.8-3  s-0.9-3.9,0.1-5.6l7.2-11.9L8.5,130c-1.8-0.5-3.3-1.9-3.9-3.7s-0.2-3.8,1-5.3l9.1-11.2c0-0.1,0.1-0.1,0.1-0.2c0.3-0.3,1.4-1.7,3.3-4  c6.5-7.9,21.6-26.4,36.8-44.6C95.3,12.5,100,8.5,105.5,7l1-0.4c0.7-0.3,1.5-0.5,2.2-0.5c0.3,0,0.6,0,0.9,0.1l0.5,0.1l0.9-0.1  c0.2,0,0.4,0,0.7,0c0.9,0,1.9,0.2,2.7,0.7l2.1,1.2c1.6,0.8,2.9,1.8,4.1,2.9l0.1,0.1c8.8,8.9,25.7,26.8,39.8,46.4  c20.5,28.7,27.7,50.9,21.9,67.9c-3.4,9.9-12.7,22.4-37.4,25.7C116.2,154.7,83.8,155.3,67,155.3z M61.7,124.9c1.7,0,3.4,0,5.2,0  c19.9,0,49-0.7,74.2-4.1c7.1-0.9,11.9-3,12.8-5.5c3.1-9-11-36.5-44-72.1C98.5,56,78,80.4,54.7,108.8l6.9,1c1.9,0.3,3.5,1.5,4.3,3.2  c0.8,1.7,0.7,3.7-0.3,5.4L61.7,124.9z"/>
</svg>
